<svg width="24" height="24" viewBox="0 0 24 24" fill="none" xmlns="http://www.w3.org/2000/svg">
<rect width="24" height="24" fill="#F7F9FC"/>
<path d="M12 4.5C15.0334 4.5 17.5 7.01954 17.5 10.1818C17.5 10.9137 17.172 11.8669 16.619 12.9297C16.0733 13.9784 15.34 15.0752 14.5981 16.0775C13.8575 17.078 13.1158 17.9744 12.5587 18.6211C12.3399 18.8751 12.1499 19.0902 12 19.2575C11.8502 19.0902 11.6601 18.8751 11.4413 18.6211C10.8842 17.9744 10.1425 17.078 9.40188 16.0775C8.65998 15.0752 7.92673 13.9784 7.38104 12.9297C6.82799 11.8669 6.5 10.9137 6.5 10.1818C6.5 7.01954 8.96658 4.5 12 4.5Z" stroke="#061A2F"/>
<circle cx="12" cy="10" r="2.5" stroke="#061A2F"/>
</svg>
