<svg width="74" height="55" viewBox="0 0 74 55" fill="none" xmlns="http://www.w3.org/2000/svg">
<path opacity="0.1" d="M39.6387 33.291C39.6387 30.2116 40.0326 27.1322 40.8203 24.0527C41.6797 20.9017 43.0046 17.9297 44.7949 15.1367C46.6569 12.2721 49.0202 9.6582 51.8848 7.29492C54.7493 4.86003 58.2227 2.81901 62.3047 1.17188C62.6628 1.02865 62.985 0.921224 63.2715 0.849609C63.5579 0.777995 63.8802 0.742188 64.2383 0.742188C65.8854 0.742188 67.2461 1.35091 68.3203 2.56836C69.3945 3.78581 69.9316 5.11068 69.9316 6.54297C69.9316 7.61719 69.5736 8.6556 68.8574 9.6582C68.2129 10.6608 67.3177 11.377 66.1719 11.8066C62.9492 13.0241 60.3711 14.528 58.4375 16.3184C56.5039 18.1087 54.9284 20.0423 53.7109 22.1191C54.2839 21.9759 54.7852 21.9043 55.2148 21.9043C55.6445 21.9043 56.1458 21.9043 56.7188 21.9043C58.9388 21.9043 61.0514 22.334 63.0566 23.1934C65.0619 24.0527 66.8164 25.2344 68.3203 26.7383C69.8242 28.2422 71.0059 29.9967 71.8652 32.002C72.7962 34.0072 73.2617 36.1556 73.2617 38.4473C73.2617 40.7389 72.7962 42.8874 71.8652 44.8926C71.0059 46.8262 69.8242 48.5091 68.3203 49.9414C66.8164 51.3737 65.0619 52.5195 63.0566 53.3789C61.0514 54.2383 58.9388 54.668 56.7188 54.668C53.7826 54.668 51.2402 54.0951 49.0918 52.9492C47.015 51.8034 45.2604 50.2637 43.8281 48.3301C42.3958 46.3249 41.3216 44.0332 40.6055 41.4551C39.9609 38.877 39.6387 36.1556 39.6387 33.291ZM0 33.291C0 30.2116 0.39388 27.1322 1.18164 24.0527C2.04102 20.9017 3.36589 17.9297 5.15625 15.1367C7.01823 12.2721 9.38151 9.6582 12.2461 7.29492C15.1107 4.86003 18.584 2.81901 22.666 1.17188C23.0241 1.02865 23.3464 0.921224 23.6328 0.849609C23.9193 0.777995 24.2415 0.742188 24.5996 0.742188C26.2467 0.742188 27.6074 1.35091 28.6816 2.56836C29.8275 3.78581 30.4004 5.11068 30.4004 6.54297C30.4004 7.61719 30.0423 8.6556 29.3262 9.6582C28.61 10.6608 27.7148 11.377 26.6406 11.8066C23.418 13.0241 20.804 14.528 18.7988 16.3184C16.8652 18.1087 15.2897 20.0423 14.0723 22.1191C14.6452 21.9759 15.1465 21.9043 15.5762 21.9043C16.0775 21.9043 16.6146 21.9043 17.1875 21.9043C19.4076 21.9043 21.5202 22.334 23.5254 23.1934C25.5306 24.0527 27.2852 25.2344 28.7891 26.7383C30.293 28.2422 31.4746 29.9967 32.334 32.002C33.1934 34.0072 33.623 36.1556 33.623 38.4473C33.623 40.7389 33.1934 42.8874 32.334 44.8926C31.4746 46.8262 30.293 48.5091 28.7891 49.9414C27.2852 51.3737 25.5306 52.5195 23.5254 53.3789C21.5202 54.2383 19.4076 54.668 17.1875 54.668C14.2513 54.668 11.709 54.0951 9.56055 52.9492C7.41211 51.8034 5.62174 50.2637 4.18945 48.3301C2.75716 46.3249 1.68294 44.0332 0.966797 41.4551C0.322266 38.877 0 36.1556 0 33.291Z" fill="#6659B8"/>
</svg>
