<svg width="12" height="16" viewBox="0 0 12 16" fill="none" xmlns="http://www.w3.org/2000/svg">
<path d="M6 0.5C9.03342 0.5 11.5 3.01954 11.5 6.18182C11.5 6.91368 11.172 7.86689 10.619 8.92971C10.0733 9.97837 9.34002 11.0752 8.59811 12.0775C7.85755 13.078 7.11584 13.9744 6.55869 14.6211C6.33986 14.8751 6.14985 15.0902 6 15.2575C5.85015 15.0902 5.66014 14.8751 5.44131 14.6211C4.88416 13.9744 4.14245 13.078 3.40188 12.0775C2.65998 11.0752 1.92673 9.97837 1.38104 8.92971C0.827985 7.86689 0.5 6.91368 0.5 6.18182C0.5 3.01954 2.96658 0.5 6 0.5Z" stroke="#061A2F"/>
</svg>
